# xmcd
# 
# Track frame offsets:
#     150
#     8292
#     32047
#     50992
#     71957
#     86200
#     100302
#     105897
#     120897
#     139437
#     158775
#     171760
# 
# Disc length: 2566
# 
# Revision: 20
# Processed by: cddbd v1.5.2PL0 Copyright (c) Steve Scherf et al.
# Submitted via: BonkEnc v1.0.15
# 
DISCID=9a0a040c
DTITLE=Deep Forest - Boheme (COL_478623-2)
DYEAR=1995
DGENRE=Ambient
TTITLE0=Anasthasia
TTITLE1=Bohemian Ballet
TTITLE2=Marta's Song
TTITLE3=Gathering
TTITLE4=Lament
TTITLE5=Bulgarian Melody
TTITLE6=Deep Folk Song
TTITLE7=Freedom Cry
TTITLE8=Twosome
TTITLE9=Cafe Europa
TTITLE10=Katharina
TTITLE11=Boheme
EXTD=YEAR: 1995
EXTT0=
EXTT1=
EXTT2=
EXTT3=
EXTT4=
EXTT5=
EXTT6=
EXTT7=
EXTT8=
EXTT9=
EXTT10=
EXTT11=
PLAYORDER=
